<?xml version="1.0" encoding="utf-8"?>
<!-- Generator: Adobe Illustrator 28.0.0, SVG Export Plug-In . SVG Version: 6.00 Build 0)  -->
<svg version="1.1" id="Layer_1" xmlns="http://www.w3.org/2000/svg" xmlns:xlink="http://www.w3.org/1999/xlink" x="0px" y="0px"
	 viewBox="-300 184.865 240.391 226.415" enable-background="new -300 184.865 240.391 226.415" xml:space="preserve">
<defs>
	<script  language="JavaScript"></script>
</defs>
<script  type="text/JavaScript">
	<![CDATA[
function notify( ref, type ) {
    var event = document.createEvent("CustomEvent");
    event.initEvent(type,true,true);
    ref.dispatchEvent(event);
}

		
		
		
		
		
		
		
		
		
		
		
		
		]]>
</script>
<g opacity="0.5">
	<path fill="#FFFFFF" d="M-261.449,341.191c-0.276,0-0.5,0.224-0.5,0.5v1c0,0.276,0.224,0.5,0.5,0.5s0.5-0.224,0.5-0.5v-1
		C-260.949,341.414-261.173,341.191-261.449,341.191z"/>
	<path fill="#FFFFFF" d="M-84.967,295.368c0.005-0.226,0.018-0.45,0.018-0.677c0-19.725-15.029-35.936-34.261-37.815
		c-7.206-16.793-25.276-26.998-44.008-23.554c-5.1,0.938-9.787,2.813-13.936,5.4c-6.622-13.351-20.384-22.532-36.296-22.532
		c-22.322,0-40.423,18.06-40.497,40.365c-18.082,5.535-31.003,20.182-31.003,37.385c0,4.119,0.741,8.093,2.116,11.829
		c1.311,15.637,14.408,27.921,30.384,27.921h138c16.845,0,30.5-13.655,30.5-30.5C-83.949,300.486-84.305,297.865-84.967,295.368z"/>
</g>
</svg>
